<?xml version="1.0" encoding="UTF-8"?>
<svg width="318px" height="59px" viewBox="0 0 318 59" version="1.1" xmlns="http://www.w3.org/2000/svg" xmlns:xlink="http://www.w3.org/1999/xlink">
    <defs></defs>
    <g id="Page-1" stroke="none" stroke-width="1" fill="none" fill-rule="evenodd">
        <g id="Home1-Copy-41" transform="translate(-609.000000, -515.000000)" fill="#000000">
            <g id="LOGO" transform="translate(609.000000, 515.000000)">
                <path d="M117,8.52749622 L131.128358,8.52749622 C137.37744,8.52749622 142.105006,10.2655846 145.365396,13.7960767 C148.408427,17.0549924 149.929943,21.7804203 149.929943,27.9180449 C149.929943,34.0013543 148.354087,38.7267822 145.256717,42.0943285 C141.996326,45.5705053 137.26876,47.3085937 131.019679,47.3085937 L117,47.3085937 L117,8.52749622 Z M122.923043,0 L122.923043,28.6784586 L129.932882,28.6784586 C134.823467,28.6784586 138.464237,27.4835228 140.74651,25.1479666 C142.974443,22.8124103 144.11558,19.2276029 144.11558,14.3392293 C144.11558,9.34222515 142.974443,5.75741783 140.80085,3.4761768 C138.518576,1.14062051 134.932147,0 130.041561,0 L122.923043,0 Z M173.637278,18.4671893 C178.201824,18.4671893 181.733914,19.9880166 184.124867,23.1383018 C186.29846,25.9626955 187.439597,29.8733944 187.493937,34.8703985 L166.19272,34.8703985 C166.410079,37.5861617 167.116497,39.7044569 168.420653,41.170969 C169.724809,42.5831658 171.518024,43.3435795 173.800297,43.3435795 C175.810871,43.3435795 177.441066,42.8547421 178.690883,41.9313827 C179.669,41.170969 180.484098,39.921718 181.244855,38.2922601 L187.004878,38.2922601 C186.3528,40.8993927 185.102984,43.1263184 183.14675,44.8644068 C180.701457,46.9827021 177.604086,48.0690073 173.854637,48.0690073 C169.724809,48.0690073 166.410079,46.765441 164.019126,44.2126237 C161.410814,41.4968606 160.106658,37.857738 160.106658,33.2409407 C160.106658,29.0586655 161.302134,25.5824887 163.801767,22.758095 C166.19272,19.8793861 169.50745,18.4671893 173.637278,18.4671893 Z M173.800297,9.61380147 C171.626704,9.61380147 169.942169,10.2112694 168.638012,11.5148357 C167.442536,12.7640867 166.627438,14.5564904 166.301399,16.9463619 L181.462215,16.9463619 C180.918816,12.0579883 178.364844,9.61380147 173.800297,9.61380147 Z M209.190698,18.4671893 C205.821628,18.4671893 203.050296,19.1732877 200.931042,20.6397998 C198.811788,22.0519966 197.779331,24.0616613 197.779331,26.6144786 C197.779331,29.0043502 198.866128,30.9053844 201.039722,32.2632659 C202.343878,33.1323101 204.680491,33.9470391 207.995221,34.7074528 C210.875233,35.3592359 212.777127,35.9023885 213.646565,36.3369106 C215.27676,37.0973243 216.146197,38.1836296 216.146197,39.5415111 C216.146197,42.0400132 213.863924,43.3435795 209.408057,43.3435795 C207.234463,43.3435795 205.712948,42.9633727 204.734831,42.2572742 C203.756714,41.4968606 203.050296,40.138979 202.724257,38.2379448 L197.072913,38.2379448 C197.724992,44.7557763 201.854819,48.0690073 209.571077,48.0690073 C217.885072,48.0690073 222.06924,45.0816679 222.06924,39.1613043 C222.06924,36.6628022 220.928103,34.7074528 218.70017,33.2952559 C217.178654,32.3175812 214.787701,31.3942217 211.581651,30.6338081 C208.755979,29.9277097 206.908424,29.384557 205.930307,28.9500349 C204.408792,28.2439365 203.648034,27.4292076 203.648034,26.4515329 C203.648034,25.3652276 204.137093,24.4961834 205.16955,23.9530308 C206.038987,23.4098781 207.343143,23.1926171 209.082018,23.1926171 C211.038252,23.1926171 212.559768,23.5185087 213.537885,24.1702918 C214.461662,24.7677597 215.11374,25.7997497 215.548459,27.3205771 L221.145462,27.3205771 C220.493384,21.4002134 216.472236,18.4671893 209.190698,18.4671893 Z M237.353899,7.98434359 C236.212763,7.98434359 235.288986,8.31023517 234.528228,9.07064884 C233.76747,9.77674726 233.387091,10.7001067 233.387091,11.8407272 C233.387091,12.9270325 233.76747,13.9047072 234.528228,14.6651209 C235.288986,15.3712193 236.212763,15.7514261 237.353899,15.7514261 C238.440696,15.7514261 239.418813,15.3712193 240.179571,14.6651209 C240.940329,13.9047072 241.375048,12.9813477 241.375048,11.8407272 C241.375048,10.7001067 240.994669,9.77674726 240.233911,9.07064884 C239.473153,8.31023517 238.495036,7.98434359 237.353899,7.98434359 Z M234.473888,19.2276029 L234.473888,47.3085937 L240.233911,47.3085937 L240.233911,19.2276029 L234.473888,19.2276029 Z M266.00616,18.4671893 C269.701269,18.4671893 272.526941,19.9337013 274.591854,22.975356 L274.591854,19.2276029 L280.351877,19.2276029 L280.351877,45.4618747 C280.351877,54.3695778 275.95035,58.8234293 267.255976,58.8234293 C263.343508,58.8234293 260.354817,58.0630156 258.289903,56.5965036 C256.224989,55.0756762 254.975172,52.7944352 254.431774,49.6984652 L260.191797,49.6984652 C260.517836,51.3279231 261.169914,52.5228589 262.256711,53.2289573 C263.289168,53.8807404 264.973703,54.2609473 267.255976,54.2609473 C272.146562,54.2609473 274.591854,51.5994994 274.591854,46.3309189 L274.591854,41.9856979 C272.526941,45.0816679 269.701269,46.6568105 266.00616,46.6568105 C262.202371,46.6568105 259.105,45.3532442 256.768387,42.8004269 C254.377434,40.2476095 253.236298,36.8800633 253.236298,32.6434728 C253.236298,28.4068823 254.377434,25.039336 256.768387,22.4322034 C259.105,19.7707556 262.202371,18.4671893 266.00616,18.4671893 Z M266.875597,9.5594862 C264.430304,9.5594862 262.52841,10.3742151 261.224254,12.1123035 C259.811418,13.7417614 259.15934,16.0773177 259.15934,19.0646571 C259.15934,21.7804203 259.702738,23.9530308 260.789535,25.5281734 C262.039352,27.3748923 264.049926,28.352567 266.875597,28.352567 C269.32089,28.352567 271.222784,27.5378381 272.63562,25.9083802 C273.939776,24.2246071 274.646194,21.9433661 274.646194,19.0646571 C274.646194,16.131633 273.939776,13.7960767 272.63562,12.1123035 C271.222784,10.3742151 269.32089,9.5594862 266.875597,9.5594862 Z M307.428282,18.4671893 C305.689408,18.4671893 304.113552,18.7930808 302.700716,19.5534945 C301.287881,20.2595929 300.038064,21.2915829 298.951267,22.7037797 L298.951267,19.2276029 L293.191244,19.2276029 L293.191244,47.3085937 L298.951267,47.3085937 L298.951267,30.416547 C299.168627,28.135306 299.983724,26.3429023 301.287881,25.039336 C302.483357,23.8444002 303.950533,23.3012476 305.580728,23.3012476 C309.927915,23.3012476 312.155849,25.6911192 312.155849,30.4708623 L312.155849,47.3085937 L317.915872,47.3085937 L317.915872,29.9820249 C317.915872,22.2692576 314.383782,18.4671893 307.428282,18.4671893 Z" id="Dre-Design"></path>
                <path d="M0,8.52749622 L14.1283583,8.52749622 C20.3774398,8.52749622 25.1050059,10.2655846 28.3653963,13.7960767 C31.4084273,17.0549924 32.9299428,21.7804203 32.9299428,27.9180449 C32.9299428,34.0013543 31.3540874,38.7267822 28.2567166,42.0943285 C24.9963262,45.5705053 20.2687602,47.3085937 14.0196786,47.3085937 L0,47.3085937 L0,8.52749622 Z M5.92304251,-2.84217094e-14 L5.92304251,28.6784586 L12.9328818,28.6784586 C17.8234674,28.6784586 21.4642366,27.4835228 23.7465099,25.1479666 C25.9744433,22.8124103 27.1155799,19.2276029 27.1155799,14.3392293 C27.1155799,9.34222515 25.9744433,5.75741783 23.8008497,3.4761768 C21.5185765,1.14062051 17.9321471,-2.84217094e-14 13.0415615,-2.84217094e-14 L5.92304251,-2.84217094e-14 Z M57.7784144,18.4671893 C56.0395395,18.4671893 54.518024,18.9560266 53.2138678,20.0423319 C52.127071,20.8027455 51.2032938,21.9433661 50.4968759,23.4641934 L50.4968759,19.2276029 L44.7368529,19.2276029 L44.7368529,47.3085937 L50.4968759,47.3085937 L50.4968759,32.4262117 C50.4968759,29.9820249 51.2032938,27.9723602 52.6704694,26.4515329 C54.0289654,25.039336 55.6048208,24.3332376 57.3436956,24.3332376 C58.6478518,24.3332376 60.0063478,24.4961834 61.4191836,24.9307055 L61.4191836,19.1732877 C60.4410665,18.6844503 59.1912502,18.4671893 57.7784144,18.4671893 Z M83.1702843,18.4671893 C87.7348308,18.4671893 91.2669204,19.9880166 93.6578734,23.1383018 C95.8314669,25.9626955 96.9726036,29.8733944 97.0269434,34.8703985 L75.7257263,34.8703985 C75.9430857,37.5861617 76.6495036,39.7044569 77.9536597,41.170969 C79.2578159,42.5831658 81.0510306,43.3435795 83.3333038,43.3435795 C85.3438779,43.3435795 86.9740731,42.8547421 88.2238894,41.9313827 C89.2020065,41.170969 90.0171041,39.921718 90.7778619,38.2922601 L96.5378849,38.2922601 C95.8858068,40.8993927 94.6359905,43.1263184 92.6797562,44.8644068 C90.2344635,46.9827021 87.1370926,48.0690073 83.3876437,48.0690073 C79.2578159,48.0690073 75.9430857,46.765441 73.5521327,44.2126237 C70.9438204,41.4968606 69.6396643,37.857738 69.6396643,33.2409407 C69.6396643,29.0586655 70.8351407,25.5824887 73.3347734,22.758095 C75.7257263,19.8793861 79.0404565,18.4671893 83.1702843,18.4671893 Z M83.3333038,9.61380147 C81.1597103,9.61380147 79.4751752,10.2112694 78.1710191,11.5148357 C76.9755426,12.7640867 76.160445,14.5564904 75.834406,16.9463619 L90.9952212,16.9463619 C90.4518228,12.0579883 87.8978504,9.61380147 83.3333038,9.61380147 Z" id="Dre-Design-Copy"></path>
            </g>
        </g>
    </g>
</svg>